<svg 
 xmlns="http://www.w3.org/2000/svg"
 xmlns:xlink="http://www.w3.org/1999/xlink"
 width="94px" height="95px">
<defs>
<filter filterUnits="userSpaceOnUse" id="Filter_0" x="0px" y="0px" width="94px" height="95px"  >
    <feOffset in="SourceAlpha" dx="1.5" dy="2.598" />
    <feGaussianBlur result="blurOut" stdDeviation="0" />
    <feFlood flood-color="rgb(0, 0, 0)" result="floodOut" />
    <feComposite operator="atop" in="floodOut" in2="blurOut" />
    <feComponentTransfer><feFuncA type="linear" slope="0.13"/></feComponentTransfer>
    <feMerge>
    <feMergeNode/>
    <feMergeNode in="SourceGraphic"/>
  </feMerge>
</filter>
<linearGradient id="PSgrad_0" x1="0%" x2="85.717%" y1="51.504%" y2="0%">
  <stop offset="0%" stop-color="rgb(71,170,230)" stop-opacity="1" />
  <stop offset="100%" stop-color="rgb(147,114,191)" stop-opacity="1" />
</linearGradient>
<filter filterUnits="userSpaceOnUse" id="Filter_1" x="4px" y="4px" width="84px" height="84px"  >
    <feOffset in="SourceAlpha" dx="1.5" dy="2.598" />
    <feGaussianBlur result="blurOut" stdDeviation="0" />
    <feFlood flood-color="rgb(0, 0, 0)" result="floodOut" />
    <feComposite operator="atop" in="floodOut" in2="blurOut" />
    <feComponentTransfer><feFuncA type="linear" slope="0.13"/></feComponentTransfer>
    <feMerge>
    <feMergeNode/>
    <feMergeNode in="SourceGraphic"/>
  </feMerge>
</filter>
<filter filterUnits="userSpaceOnUse" id="Filter_2" x="25px" y="30px" width="45px" height="35px"  >
    <feOffset in="SourceAlpha" dx="1.5" dy="2.598" />
    <feGaussianBlur result="blurOut" stdDeviation="0" />
    <feFlood flood-color="rgb(0, 0, 0)" result="floodOut" />
    <feComposite operator="atop" in="floodOut" in2="blurOut" />
    <feComponentTransfer><feFuncA type="linear" slope="0.13"/></feComponentTransfer>
    <feMerge>
    <feMergeNode/>
    <feMergeNode in="SourceGraphic"/>
  </feMerge>
</filter>

</defs>
<g filter="url(#Filter_0)">
<path fill-rule="evenodd"  fill="rgb(0, 0, 0)"
 d="M46.000,0.000 C71.405,0.000 92.000,20.595 92.000,46.000 C92.000,71.405 71.405,92.000 46.000,92.000 C20.595,92.000 -0.000,71.405 -0.000,46.000 C-0.000,20.595 20.595,0.000 46.000,0.000 Z"/>
</g>
<path fill="url(#PSgrad_0)"
 d="M46.000,0.000 C71.405,0.000 92.000,20.595 92.000,46.000 C92.000,71.405 71.405,92.000 46.000,92.000 C20.595,92.000 -0.000,71.405 -0.000,46.000 C-0.000,20.595 20.595,0.000 46.000,0.000 Z"/>
<g filter="url(#Filter_1)">
<path fill-rule="evenodd"  stroke-width="3px" stroke="rgb(255, 255, 255)" fill-opacity="0" fill="rgb(0, 0, 0)"
 d="M46.000,9.188 C66.331,9.188 82.812,25.669 82.812,46.000 C82.812,66.331 66.331,82.813 46.000,82.813 C25.669,82.813 9.188,66.331 9.188,46.000 C9.188,25.669 25.669,9.188 46.000,9.188 Z"/>
</g>
<g filter="url(#Filter_2)">
<path fill-rule="evenodd"  fill="rgb(255, 255, 255)"
 d="M66.072,61.249 L26.928,61.249 C26.142,61.249 25.504,60.612 25.504,59.827 L25.504,32.173 C25.504,31.388 26.142,30.751 26.928,30.751 L66.072,30.751 C66.858,30.751 67.496,31.388 67.496,32.173 L67.496,59.827 C67.496,60.612 66.858,61.249 66.072,61.249 ZM64.648,33.596 L28.352,33.596 L28.352,58.404 L64.648,58.404 L64.648,33.596 ZM33.577,37.875 L46.500,45.829 L59.423,37.875 C60.092,37.463 60.970,37.671 61.382,38.340 C61.795,39.009 61.586,39.885 60.917,40.297 L47.247,48.711 C47.018,48.852 46.759,48.923 46.500,48.923 C46.241,48.923 45.982,48.852 45.753,48.711 L32.083,40.297 C31.414,39.885 31.205,39.009 31.618,38.340 C32.031,37.671 32.908,37.463 33.577,37.875 Z"/>
</g>
</svg>